<?xml version="1.0" encoding="UTF-8" standalone="no"?>
<!-- Generator: visioncortex VTracer 0.6.4 -->

<svg
   version="1.1"
   width="1254"
   height="1254"
   id="svg51"
   sodipodi:docname="svg_output (1).svg"
   inkscape:version="1.4 (86a8ad7, 2024-10-11)"
   xmlns:inkscape="http://www.inkscape.org/namespaces/inkscape"
   xmlns:sodipodi="http://sodipodi.sourceforge.net/DTD/sodipodi-0.dtd"
   xmlns="http://www.w3.org/2000/svg"
   xmlns:svg="http://www.w3.org/2000/svg">
  <defs
     id="defs51" />
  <sodipodi:namedview
     id="namedview51"
     pagecolor="#ffffff"
     bordercolor="#000000"
     borderopacity="0.25"
     inkscape:showpageshadow="2"
     inkscape:pageopacity="0.0"
     inkscape:pagecheckerboard="0"
     inkscape:deskcolor="#d1d1d1"
     inkscape:zoom="0.58812789"
     inkscape:cx="578.10556"
     inkscape:cy="697.97744"
     inkscape:window-width="2400"
     inkscape:window-height="1261"
     inkscape:window-x="2391"
     inkscape:window-y="-9"
     inkscape:window-maximized="1"
     inkscape:current-layer="svg51" />
  <path
     d="M 0,0 H 1254 V 1254 H 0 Z"
     fill="#2f185d"
     id="path1"
     sodipodi:nodetypes="ccccc" />
  <path
     d="m 618.94971,314.60889 c 81.48715,-2.99394 162.75216,32.31719 216.21835,93.89237 74.23567,84.85803 94.57079,210.30889 55.79335,315.56056 -7.2769,33.82448 -38.49984,63.51525 -45.13628,92.64615 31.88099,30.35554 65.77624,58.72359 97.84495,88.90254 -66.13029,56.53743 -30.13079,25.75244 -81.36816,68.84743 -10.45202,8.36837 -8.5335,7.82127 -9.55897,7.0258 C 815.26023,948.89719 778.70913,919.92454 737.04521,892.77327 646.76157,934.30759 534.62614,922.72786 455.69907,861.7899 367.85476,797.44022 325.14475,681.79955 337.82068,575.2081 349.5747,479.52001 406.78236,388.55382 493.69432,344.43136 532.19216,324.2557 575.82161,314.19603 618.94971,314.60889 Z"
     fill="#fcfcfc"
     id="path3"
     sodipodi:nodetypes="ccccccsccccc" />
  <path
     d="M0 0 C0.683 0.124 1.365 0.247 2.068 0.375 C26.091 4.779 47.704 15.151 67 30 C67.919 30.695 68.838 31.39 69.785 32.105 C100.642 56.327 121.799 91.038 131 129 C131.266 129.975 131.531 130.949 131.805 131.953 C139.613 162.06 139.951 195.906 131.58 225.907 C130.956 228.161 130.361 230.421 129.77 232.684 C129.347 234.268 128.924 235.853 128.5 237.438 C128.311 238.159 128.121 238.88 127.927 239.623 C126.448 245.01 124.359 249.944 122 255 C121.643 255.793 121.287 256.587 120.919 257.404 C113.258 274.446 104.379 289.916 92 304 C91.248 304.861 90.497 305.722 89.723 306.609 C76.316 321.734 61.59 333.915 43.562 343.188 C42.603 343.695 41.643 344.202 40.654 344.725 C31.612 349.419 22.266 352.779 12.5 355.625 C11.772 355.837 11.043 356.05 10.292 356.269 C4.578 357.9 -1.104 359.207 -7 360 C-7.772 360.111 -8.544 360.222 -9.34 360.336 C-50.136 365.105 -91.098 354.066 -123.432 328.731 C-128.479 324.688 -133.304 320.443 -138 316 C-138.81 315.243 -139.619 314.487 -140.453 313.707 C-147.385 307.026 -153.249 299.692 -159 292 C-159.65 291.134 -160.299 290.267 -160.969 289.375 C-165.886 282.58 -169.967 275.34 -174 268 C-174.391 267.304 -174.781 266.608 -175.184 265.891 C-186.867 243.978 -193.965 216.128 -194.273 191.422 C-194.286 190.506 -194.299 189.59 -194.312 188.646 C-194.905 134.984 -180.611 85.859 -142.605 46.633 C-105.564 9.041 -52.471 -10.203 0 0 Z "
     fill="#2F185D"
     id="path4"
     transform="translate(652,436)" />
  <path
     d="m 176.16406,595.91406 c 27.40537,11.27662 94.03163,-3.41784 83.11391,44.53952 -35.38613,6.49557 -121.7599,27.34992 -114.83935,-30.03345 5.1071,-11.67287 19.22216,-20.16472 31.72544,-14.50607 z"
     fill="#cba8fa"
     id="path5" />
  <path
     d="m 1096,598 c 38.7236,37.30418 -29.3462,65.10871 -59.9295,50.93051 -47.84875,10.66519 -63.23204,-46.90559 -8.0345,-44.98583 22.1768,-5.28515 45.1738,-8.46428 67.964,-5.94468 z"
     fill="#caa8fa"
     id="path6" />
  <path
     d="m 206.0625,445.6875 c 31.62315,15.07124 76.22679,48.92801 73.03809,83.26008 -35.18487,18.10566 -69.15838,-26.76159 -94.23153,-46.71014 -7.95852,-15.67858 3.36257,-36.19382 21.19344,-36.54994 z"
     fill="#cba8fa"
     id="path7" />
  <path
     d="m 1054.375,447.4375 c 40.3226,36.10112 -28.7924,64.23263 -51.4489,86.01316 -37.94484,16.50566 -44.76049,-33.86186 -10.88248,-45.20285 16.26118,-15.71652 35.26538,-50.59916 62.33138,-40.81031 z"
     fill="#cba8fa"
     id="path8" />
  <path
     d="m 990,715 c 23.3036,21.13358 100.2319,39.89565 63.2147,80.16399 -37.8461,8.14878 -76.15071,-37.16028 -85.55295,-69.36063 C 969.54929,715.59861 981.41836,713.3459 990,715 Z"
     fill="#cba9fa"
     id="path9" />
  <path
     d="m 272,715 c 26.73009,38.39381 -36.86825,62.50161 -56.79109,85.12086 -43.75852,3.51767 -31.47993,-63.51515 6.87346,-60.5321 C 237.15647,729.00195 252.01846,713.41731 272,715 Z"
     fill="#cba9f9"
     id="path10" />
  <path
     d="M0 0 C2.375 0.25 2.375 0.25 5 1 C6.312 3.062 6.312 3.062 7 5 C8.98 5 10.96 5 13 5 C13.33 5.99 13.66 6.98 14 8 C14.804 8.124 15.609 8.247 16.438 8.375 C17.283 8.581 18.129 8.787 19 9 C19.33 9.66 19.66 10.32 20 11 C18.445 11.73 18.445 11.73 16 12 C13.471 10.87 11.238 9.718 8.875 8.312 C8.242 7.96 7.609 7.607 6.957 7.244 C3.575 5.28 1.253 3.803 0 0 Z "
     fill="#332356"
     id="path34"
     transform="translate(178,1155)" />
  <path
     d="M0 0 C8.58 0 17.16 0 26 0 C26.33 0.66 26.66 1.32 27 2 C21.517 3.157 16.197 3.114 10.625 3.062 C9.698 3.058 8.771 3.053 7.816 3.049 C5.544 3.037 3.272 3.021 1 3 C0.67 2.01 0.34 1.02 0 0 Z "
     fill="#301B63"
     id="path38"
     transform="translate(608,436)" />
  <path
     d="M0 0 C3.123 0.486 5.996 0.999 9 2 C9 2.99 9 3.98 9 5 C9.66 5.33 10.32 5.66 11 6 C7.7 6.66 4.4 7.32 1 8 C0 3 0 3 0 0 Z "
     fill="#34225F"
     id="path49"
     transform="translate(656,785)" />
</svg>
