<?xml version="1.0" encoding="UTF-8"?>
<!-- Generator: visioncortex VTracer 0.6.4 -->
<svg version="1.1" xmlns="http://www.w3.org/2000/svg" width="1254" height="1254">
<path d="M0 0 C413.82 0 827.64 0 1254 0 C1254 413.82 1254 827.64 1254 1254 C840.18 1254 426.36 1254 0 1254 C0 840.18 0 426.36 0 0 Z " fill="#2F185D" transform="translate(0,0)"/>
<path d="M0 0 C413.82 0 827.64 0 1254 0 C1254 413.82 1254 827.64 1254 1254 C840.18 1254 426.36 1254 0 1254 C0 840.18 0 426.36 0 0 Z M248.062 66.407 C245.728 67.078 243.381 67.694 241.031 68.309 C204.994 77.907 173.316 96.783 145.656 121.531 C143.95 123.044 142.197 124.487 140.438 125.938 C137.281 128.639 134.607 131.601 131.926 134.77 C130.586 136.321 129.205 137.838 127.793 139.324 C109.663 158.45 94.026 183.179 85 208 C84.541 209.164 84.082 210.328 83.609 211.527 C77 228.363 73.236 244.723 71.31 262.72 C71 265 71 265 70.489 266.826 C69.932 269.301 69.874 271.526 69.874 274.063 C69.871 275.093 69.868 276.123 69.865 277.184 C69.867 278.316 69.869 279.448 69.871 280.614 C69.87 281.821 69.868 283.028 69.866 284.272 C69.862 287.638 69.863 291.005 69.865 294.371 C69.867 298.028 69.863 301.685 69.859 305.341 C69.854 311.756 69.853 318.17 69.854 324.585 C69.855 334.124 69.851 343.663 69.846 353.202 C69.836 371.231 69.834 389.26 69.833 407.29 C69.832 421.215 69.83 435.141 69.827 449.067 C69.826 453.072 69.825 457.078 69.825 461.084 C69.824 462.08 69.824 463.076 69.824 464.102 C69.818 492.126 69.814 520.149 69.814 548.173 C69.814 549.23 69.814 550.287 69.814 551.376 C69.814 556.735 69.814 562.093 69.815 567.452 C69.815 568.516 69.815 569.58 69.815 570.676 C69.815 572.829 69.815 574.981 69.815 577.133 C69.815 610.599 69.808 644.065 69.794 677.532 C69.779 715.121 69.77 752.71 69.771 790.299 C69.771 794.308 69.771 798.318 69.771 802.328 C69.771 803.315 69.771 804.302 69.771 805.319 C69.771 821.201 69.765 837.083 69.756 852.965 C69.748 868.935 69.747 884.904 69.753 900.873 C69.757 910.357 69.755 919.841 69.746 929.324 C69.74 935.666 69.741 942.008 69.748 948.35 C69.752 951.959 69.753 955.568 69.745 959.177 C69.682 979.672 69.682 979.672 72 1000 C72.16 1000.934 72.32 1001.868 72.484 1002.831 C72.881 1005.046 73.331 1007.24 73.812 1009.438 C73.981 1010.22 74.15 1011.003 74.324 1011.81 C76.665 1022.356 79.294 1033.092 83.984 1042.863 C85.177 1045.371 86.208 1047.926 87.25 1050.5 C91.97 1061.842 96.797 1073.003 104 1083 C104.813 1084.21 105.623 1085.422 106.43 1086.637 C112.425 1095.613 118.846 1103.923 126 1112 C126.726 1112.837 127.451 1113.673 128.199 1114.535 C137.931 1125.599 148.321 1135.998 160 1145 C160.873 1145.701 161.745 1146.402 162.645 1147.125 C180.179 1160.858 201.872 1174.02 223.367 1180.219 C225.501 1180.852 227.597 1181.611 229.676 1182.406 C251.423 1190.661 274.86 1194.17 298.035 1194.131 C299.203 1194.133 300.37 1194.136 301.573 1194.138 C304.796 1194.142 308.02 1194.143 311.243 1194.141 C314.756 1194.14 318.27 1194.145 321.783 1194.149 C328.743 1194.157 335.704 1194.159 342.664 1194.16 C351.005 1194.161 359.345 1194.167 367.686 1194.174 C387.84 1194.19 407.994 1194.196 428.148 1194.201 C437.686 1194.203 447.223 1194.207 456.761 1194.211 C489.422 1194.223 522.083 1194.234 554.744 1194.238 C556.793 1194.238 558.842 1194.238 560.891 1194.238 C562.945 1194.238 564.999 1194.239 567.053 1194.239 C571.173 1194.239 575.294 1194.24 579.414 1194.24 C580.946 1194.24 580.946 1194.24 582.51 1194.241 C615.638 1194.244 648.767 1194.26 681.895 1194.283 C716.937 1194.308 751.98 1194.322 787.022 1194.323 C790.87 1194.323 794.718 1194.323 798.566 1194.324 C799.988 1194.324 799.988 1194.324 801.437 1194.324 C816.671 1194.325 831.904 1194.336 847.137 1194.35 C862.453 1194.365 877.768 1194.368 893.084 1194.36 C902.176 1194.356 911.269 1194.359 920.361 1194.375 C926.443 1194.385 932.525 1194.384 938.607 1194.374 C942.067 1194.368 945.527 1194.368 948.986 1194.38 C963.032 1194.422 976.264 1194.079 990 1191 C991.836 1190.68 993.675 1190.37 995.516 1190.078 C1012.746 1187.126 1028.872 1181.754 1044.75 1174.48 C1046.62 1173.629 1048.503 1172.803 1050.416 1172.053 C1070.341 1163.934 1089.522 1150.873 1105 1136 C1106.245 1134.931 1107.495 1133.869 1108.75 1132.812 C1119.14 1123.703 1128.5 1113.819 1136.725 1102.719 C1137.963 1101.05 1139.221 1099.398 1140.48 1097.746 C1154.744 1078.727 1165.044 1057.307 1173 1035 C1173.296 1034.193 1173.593 1033.386 1173.898 1032.555 C1180.682 1013.371 1184.164 992.921 1184.131 972.631 C1184.133 971.415 1184.136 970.199 1184.138 968.946 C1184.142 965.583 1184.143 962.22 1184.141 958.856 C1184.14 955.193 1184.145 951.529 1184.149 947.865 C1184.157 940.604 1184.159 933.342 1184.16 926.081 C1184.161 917.381 1184.167 908.681 1184.174 899.981 C1184.19 878.955 1184.196 857.928 1184.201 836.902 C1184.203 826.951 1184.207 817 1184.211 807.048 C1184.223 772.969 1184.234 738.89 1184.238 704.811 C1184.238 702.673 1184.238 700.534 1184.238 698.396 C1184.238 696.252 1184.239 694.108 1184.239 691.965 C1184.239 687.664 1184.24 683.364 1184.24 679.064 C1184.24 677.464 1184.24 677.464 1184.241 675.833 C1184.244 641.271 1184.26 606.708 1184.283 572.146 C1184.308 535.586 1184.322 499.026 1184.323 462.466 C1184.323 458.45 1184.323 454.434 1184.324 450.418 C1184.324 449.429 1184.324 448.44 1184.324 447.421 C1184.325 431.531 1184.336 415.641 1184.35 399.751 C1184.365 383.769 1184.368 367.787 1184.36 351.805 C1184.356 342.32 1184.359 332.835 1184.375 323.35 C1184.385 317.001 1184.384 310.652 1184.374 304.304 C1184.368 300.695 1184.368 297.086 1184.38 293.477 C1184.432 277.724 1183.876 262.513 1181 247 C1180.797 245.893 1180.593 244.787 1180.384 243.646 C1179.921 241.265 1179.394 238.917 1178.812 236.562 C1178.502 235.289 1178.502 235.289 1178.185 233.991 C1165.841 185.636 1135.623 140.353 1096 110 C1095.452 109.575 1094.903 109.15 1094.338 108.712 C1084.692 101.275 1074.619 94.948 1064 89 C1063.377 88.643 1062.753 88.286 1062.111 87.918 C1051.495 81.848 1040.442 77.277 1029 73 C1028.189 72.686 1027.377 72.373 1026.541 72.05 C1004.375 63.548 979.915 59.829 956.222 59.869 C955.07 59.867 953.919 59.864 952.732 59.862 C949.548 59.858 946.364 59.857 943.18 59.859 C939.711 59.86 936.241 59.855 932.772 59.851 C925.897 59.843 919.022 59.841 912.146 59.84 C903.908 59.839 895.67 59.833 887.432 59.826 C867.52 59.81 847.608 59.804 827.697 59.799 C818.27 59.797 808.843 59.793 799.416 59.789 C767.125 59.777 734.834 59.766 702.543 59.762 C700.516 59.762 698.49 59.762 696.464 59.762 C694.433 59.762 692.401 59.761 690.37 59.761 C686.296 59.761 682.221 59.76 678.146 59.76 C676.631 59.76 676.631 59.76 675.085 59.759 C642.352 59.756 609.62 59.74 576.887 59.717 C542.252 59.692 507.617 59.678 472.982 59.677 C469.175 59.677 465.368 59.677 461.561 59.676 C460.624 59.676 459.687 59.676 458.721 59.676 C443.676 59.675 428.632 59.664 413.587 59.65 C398.445 59.635 383.303 59.632 368.16 59.64 C359.181 59.644 350.202 59.641 341.222 59.625 C335.204 59.615 329.185 59.616 323.167 59.626 C319.751 59.632 316.335 59.631 312.919 59.62 C291.132 59.554 269.109 60.234 248.062 66.407 Z " fill="#FCFCFC" transform="translate(0,0)"/>
<path d="M0 0 C3.547 0.016 7.093 0 10.64 -0.019 C29.987 -0.038 48.548 2.073 67.425 6.266 C68.613 6.527 69.801 6.787 71.024 7.055 C85.593 10.32 99.31 15.084 113.151 20.639 C114.672 21.241 116.205 21.814 117.742 22.375 C137.35 29.605 156.563 41.679 173.05 54.391 C173.58 54.793 174.111 55.194 174.657 55.608 C186.182 64.342 196.669 73.961 206.925 84.141 C207.436 84.648 207.948 85.154 208.474 85.676 C222.635 99.898 234.669 116.258 245.05 133.391 C245.532 134.183 246.014 134.975 246.51 135.792 C262.727 162.696 273.866 191.149 282.05 221.391 C282.258 222.146 282.465 222.901 282.679 223.679 C285.977 235.953 287.313 248.535 288.744 261.133 C288.824 261.837 288.905 262.541 288.987 263.267 C289.206 265.204 289.419 267.142 289.633 269.08 C289.976 272.248 289.976 272.248 290.592 274.741 C291.29 278.775 291.213 282.785 291.218 286.872 C291.222 287.798 291.225 288.725 291.228 289.68 C291.233 291.646 291.236 293.612 291.236 295.578 C291.238 298.523 291.256 301.468 291.275 304.413 C291.33 321.856 289.496 338.439 286.073 355.526 C285.608 357.851 285.156 360.178 284.705 362.506 C283.126 370.569 281.341 378.495 279.05 386.391 C278.72 387.648 278.39 388.905 278.05 390.2 C268.53 424.749 252.434 457.742 231.319 486.635 C228.784 490.144 226.408 493.761 224.05 497.391 C227.091 504.167 233.37 508.751 238.89 513.516 C242.997 517.081 247.013 520.748 251.05 524.391 C252.696 525.87 254.342 527.35 255.988 528.829 C259.563 532.044 263.122 535.277 266.675 538.516 C269.71 541.28 272.756 544.021 275.863 546.704 C278.992 549.416 282.019 552.223 285.039 555.055 C290.725 560.389 296.504 565.464 302.593 570.34 C305.639 572.882 308.387 575.637 311.144 578.485 C313.097 580.438 315.134 582.227 317.238 584.016 C325.678 591.407 325.678 591.407 326.457 595.555 C326.662 600.673 325.629 603.905 323.05 608.391 C320.76 610.47 320.76 610.47 318.089 612.309 C317.109 612.988 316.128 613.666 315.118 614.365 C310.272 617.566 305.374 620.665 300.425 623.704 C298.304 625.018 296.182 626.333 294.062 627.649 C293.035 628.286 292.008 628.923 290.95 629.58 C286.341 632.459 281.786 635.417 277.234 638.385 C271.052 642.409 264.813 646.34 258.555 650.245 C255.021 652.462 251.55 654.714 248.171 657.161 C242.291 661.363 236.165 662.4 229.05 661.391 C223.955 659.341 220.23 656.236 216.175 652.641 C215.556 652.101 214.937 651.561 214.299 651.005 C212.544 649.473 210.796 647.933 209.05 646.391 C207.696 645.203 206.342 644.016 204.988 642.829 C204.083 642.034 204.083 642.034 203.16 641.223 C196.325 635.287 189.396 629.464 182.363 623.766 C178.835 620.897 175.413 617.952 172.05 614.891 C165.892 609.287 159.428 604.073 152.91 598.895 C151.904 598.089 150.899 597.284 149.863 596.454 C148.941 595.723 148.019 594.992 147.07 594.239 C146.403 593.629 145.737 593.019 145.05 592.391 C145.05 591.731 145.05 591.071 145.05 590.391 C144.23 590.031 144.23 590.031 143.394 589.665 C140.481 588.082 138.105 586.129 135.55 584.016 C134.612 583.245 133.673 582.474 132.707 581.68 C130.374 579.67 128.19 577.602 126.05 575.391 C120.579 577.052 115.538 579.084 110.363 581.516 C93.101 589.37 73.739 594.468 55.05 597.391 C53.428 597.706 51.807 598.028 50.187 598.356 C-17.605 612.03 -90.666 595.197 -148.231 557.783 C-156.414 552.341 -164.322 546.585 -171.95 540.391 C-172.469 539.975 -172.987 539.559 -173.522 539.131 C-189.431 526.296 -204.739 511.644 -216.74 495.054 C-218.011 493.307 -219.315 491.589 -220.625 489.872 C-253.07 447.034 -272.292 396.348 -279.95 343.391 C-280.101 342.416 -280.252 341.441 -280.407 340.437 C-285.289 308.477 -285.158 274.135 -277.684 242.598 C-276.88 239.087 -276.295 235.568 -275.7 232.016 C-272.202 212.392 -265.781 192.105 -257.208 174.094 C-255.808 171.086 -254.576 168.027 -253.325 164.954 C-247.359 150.978 -239.605 137.853 -230.95 125.391 C-229.678 123.433 -228.407 121.475 -227.137 119.516 C-219.855 108.628 -211.579 98.749 -202.602 89.231 C-200.554 87.039 -198.603 84.831 -196.7 82.516 C-194.124 79.463 -191.246 76.913 -188.204 74.333 C-185.64 72.124 -183.176 69.822 -180.7 67.516 C-175.071 62.386 -169.125 57.839 -162.95 53.391 C-162.14 52.797 -161.331 52.203 -160.497 51.59 C-128.721 28.706 -88.971 9.873 -49.965 4.829 C-47.076 4.716 -47.076 4.716 -45.95 3.391 C-30.908 -0.004 -15.331 -0.082 0 0 Z " fill="#FCFCFC" transform="translate(618.94970703125,314.60888671875)"/>
<path d="M0 0 C0.683 0.124 1.365 0.247 2.068 0.375 C26.091 4.779 47.704 15.151 67 30 C67.919 30.695 68.838 31.39 69.785 32.105 C100.642 56.327 121.799 91.038 131 129 C131.266 129.975 131.531 130.949 131.805 131.953 C139.613 162.06 139.951 195.906 131.58 225.907 C130.956 228.161 130.361 230.421 129.77 232.684 C129.347 234.268 128.924 235.853 128.5 237.438 C128.311 238.159 128.121 238.88 127.927 239.623 C126.448 245.01 124.359 249.944 122 255 C121.643 255.793 121.287 256.587 120.919 257.404 C113.258 274.446 104.379 289.916 92 304 C91.248 304.861 90.497 305.722 89.723 306.609 C76.316 321.734 61.59 333.915 43.562 343.188 C42.603 343.695 41.643 344.202 40.654 344.725 C31.612 349.419 22.266 352.779 12.5 355.625 C11.772 355.837 11.043 356.05 10.292 356.269 C4.578 357.9 -1.104 359.207 -7 360 C-7.772 360.111 -8.544 360.222 -9.34 360.336 C-50.136 365.105 -91.098 354.066 -123.432 328.731 C-128.479 324.688 -133.304 320.443 -138 316 C-138.81 315.243 -139.619 314.487 -140.453 313.707 C-147.385 307.026 -153.249 299.692 -159 292 C-159.65 291.134 -160.299 290.267 -160.969 289.375 C-165.886 282.58 -169.967 275.34 -174 268 C-174.391 267.304 -174.781 266.608 -175.184 265.891 C-186.867 243.978 -193.965 216.128 -194.273 191.422 C-194.286 190.506 -194.299 189.59 -194.312 188.646 C-194.905 134.984 -180.611 85.859 -142.605 46.633 C-105.564 9.041 -52.471 -10.203 0 0 Z " fill="#2F185D" transform="translate(652,436)"/>
<path d="M0 0 C4.798 1.358 9.603 2.12 14.523 2.898 C24.942 4.587 35.33 6.411 45.714 8.296 C50.997 9.248 56.277 10.174 61.586 10.965 C62.883 11.158 62.883 11.158 64.206 11.355 C65.766 11.582 67.327 11.802 68.89 12.01 C75.176 12.92 80.083 14.333 84.648 18.898 C87.914 23.657 89.453 28.078 89.273 33.934 C88.087 39.772 84.593 43.911 79.749 47.15 C73.074 50.375 65.406 49.925 58.141 50.133 C56.504 50.193 54.867 50.254 53.231 50.317 C48.933 50.479 44.634 50.617 40.336 50.751 C36.859 50.863 33.383 50.991 29.908 51.12 C-14.926 52.778 -14.926 52.778 -21.164 49.086 C-21.756 48.746 -22.347 48.405 -22.957 48.055 C-28.611 44.486 -32.157 39.651 -33.977 33.211 C-34.038 32.18 -34.1 31.148 -34.164 30.086 C-34.214 29.323 -34.265 28.56 -34.316 27.773 C-34.62 19.802 -33.079 14.178 -28.102 7.898 C-20.398 -0.29 -10.853 -3.135 0 0 Z " fill="#CBA8FA" transform="translate(176.1640625,595.9140625)"/>
<path d="M0 0 C0 0.66 0 1.32 0 2 C0.759 2.244 1.519 2.487 2.301 2.738 C7.766 5.293 10.313 11.19 12.375 16.625 C14.003 25.414 12.281 32.778 7.527 40.344 C3.236 45.781 -1.243 48.578 -8 50 C-10.755 50.139 -13.438 50.197 -16.191 50.168 C-17.039 50.163 -17.887 50.158 -18.76 50.153 C-31.12 50.029 -43.475 49.584 -55.824 49.086 C-59.697 48.929 -63.569 48.783 -67.442 48.659 C-71.253 48.537 -75.062 48.392 -78.871 48.231 C-80.305 48.174 -81.738 48.125 -83.172 48.084 C-93.177 47.792 -99.307 46.576 -106.5 39.562 C-108.92 33.815 -108.714 28.137 -108 22 C-105.773 17.031 -102.851 14.426 -98 12 C-95.105 11.348 -92.234 10.881 -89.293 10.492 C-86.738 10.11 -84.301 9.639 -81.789 9.062 C-76.62 7.884 -71.415 7.003 -66.188 6.125 C-58.537 4.82 -50.917 3.423 -43.312 1.875 C-41.668 1.544 -40.023 1.213 -38.379 0.883 C-35.802 0.365 -33.226 -0.161 -30.652 -0.695 C-20.766 -2.585 -9.509 -3.71 0 0 Z " fill="#CAA8FA" transform="translate(1096,598)"/>
<path d="M0 0 C1.084 -0.037 2.168 -0.075 3.285 -0.113 C12.247 0.931 17.991 5.647 24.078 11.965 C24.808 12.702 25.538 13.439 26.29 14.199 C28.602 16.538 30.895 18.893 33.188 21.25 C34.741 22.829 36.296 24.406 37.852 25.982 C40.706 28.877 43.553 31.778 46.392 34.687 C50.859 39.262 55.393 43.767 59.949 48.254 C61.359 49.65 62.768 51.045 64.177 52.442 C65.146 53.401 66.117 54.358 67.089 55.313 C68.506 56.705 69.915 58.105 71.324 59.504 C72.162 60.331 72.999 61.158 73.862 62.01 C77.894 66.483 78.33 69.913 78.184 75.781 C77.674 81.019 75.898 84.736 71.938 88.125 C67.11 91.645 64.647 92.914 58.737 92.785 C53.433 91.89 49.414 88.827 45.062 85.812 C44.097 85.17 43.132 84.528 42.137 83.867 C39.39 82.035 36.663 80.176 33.938 78.312 C32.704 77.488 31.468 76.666 30.23 75.848 C28.39 74.63 26.554 73.406 24.724 72.172 C22.129 70.44 19.51 68.759 16.871 67.094 C10.763 63.216 4.716 59.25 -1.312 55.25 C-2.349 54.569 -3.385 53.887 -4.453 53.186 C-21.491 41.874 -21.491 41.874 -24.062 32.312 C-25.04 24.333 -24.028 16.799 -19.438 10.125 C-14.405 3.828 -7.999 0.178 0 0 Z " fill="#CBA8FA" transform="translate(206.0625,445.6875)"/>
<path d="M0 0 C6.71 4.069 12.575 11.003 14.625 18.562 C15.495 25.613 15.207 31.45 11.266 37.492 C5.325 44.989 -2.411 49.652 -10.552 54.443 C-15.408 57.303 -20.036 60.371 -24.632 63.633 C-29.37 66.966 -34.189 70.18 -39.006 73.396 C-40.743 74.558 -42.477 75.724 -44.211 76.891 C-63.956 90.119 -63.956 90.119 -70.125 91.25 C-77.454 89.7 -82.084 86.674 -86.375 80.562 C-88.084 75.437 -87.83 71.089 -86.312 66 C-84.311 62.45 -82.233 60.16 -79.285 57.406 C-76.592 54.807 -74.243 51.946 -71.855 49.066 C-71.367 48.57 -70.878 48.074 -70.375 47.562 C-69.715 47.562 -69.055 47.562 -68.375 47.562 C-68.102 46.964 -67.83 46.366 -67.549 45.75 C-66.404 43.617 -65.307 42.257 -63.594 40.57 C-62.758 39.739 -62.758 39.739 -61.905 38.892 C-61.007 38.013 -61.007 38.013 -60.09 37.117 C-59.474 36.506 -58.857 35.895 -58.222 35.265 C-56.257 33.318 -54.285 31.377 -52.312 29.438 C-50.337 27.49 -48.363 25.54 -46.392 23.588 C-45.166 22.375 -43.937 21.164 -42.706 19.956 C-39.664 17.048 -39.664 17.048 -37.375 13.562 C-36.715 13.562 -36.055 13.562 -35.375 13.562 C-34.715 12.243 -34.055 10.923 -33.375 9.562 C-32.715 9.562 -32.055 9.562 -31.375 9.562 C-31.126 8.968 -30.877 8.374 -30.621 7.762 C-29.194 5.244 -27.771 4.065 -25.438 2.375 C-24.748 1.866 -24.058 1.357 -23.348 0.832 C-17.175 -3.14 -6.619 -2.907 0 0 Z " fill="#CBA8FA" transform="translate(1054.375,447.4375)"/>
<path d="M0 0 C5.392 2.593 10.232 6.164 15.083 9.637 C17.483 11.343 19.945 12.932 22.438 14.5 C23.291 15.041 24.144 15.583 25.023 16.141 C28.855 18.534 32.707 20.894 36.562 23.25 C37.325 23.716 38.087 24.183 38.872 24.663 C42.862 27.1 46.861 29.517 50.879 31.906 C73.202 45.233 73.202 45.233 76 55 C77.035 62.459 75.853 68.974 71.488 75.133 C68.045 79.326 64.375 83.539 59 85 C51.326 85.731 44.762 86.057 38 82 C36.286 80.382 34.629 78.703 33 77 C31.571 75.699 30.132 74.408 28.688 73.125 C23.34 68.345 18.12 63.438 12.899 58.521 C9.182 55.027 5.439 51.575 1.625 48.188 C-2.646 44.383 -6.66 40.364 -10.672 36.289 C-13.169 33.834 -15.766 31.6 -18.527 29.449 C-22.23 25.805 -23.462 22.316 -23.562 17.188 C-23.429 11.786 -22.229 8.74 -18.801 4.621 C-13.037 -0.568 -7.515 -1.696 0 0 Z " fill="#CBA9FA" transform="translate(990,715)"/>
<path d="M0 0 C5.301 3.282 9.106 6.985 11 13 C11.623 19.339 10.732 23.771 7 29 C5.289 30.764 3.482 32.293 1.578 33.848 C-1.755 36.63 -4.9 39.589 -8.062 42.562 C-9.379 43.796 -10.695 45.029 -12.012 46.262 C-12.675 46.884 -13.338 47.505 -14.021 48.146 C-15.914 49.919 -17.81 51.689 -19.707 53.457 C-20.312 54.021 -20.917 54.585 -21.541 55.166 C-22.766 56.307 -23.991 57.448 -25.217 58.588 C-28.651 61.786 -32.059 65.009 -35.441 68.262 C-36.191 68.978 -36.94 69.694 -37.711 70.432 C-39.151 71.81 -40.586 73.194 -42.015 74.583 C-48.799 81.058 -55.52 86.547 -65.328 86.402 C-72.451 85.33 -79.168 81.667 -83.625 76 C-87.896 69.33 -89.046 62.847 -88 55 C-84.121 43.917 -74.225 38.681 -64.625 33 C-57.628 28.827 -50.747 24.566 -44 20 C-40.196 17.466 -36.381 14.95 -32.562 12.438 C-31.59 11.791 -30.617 11.145 -29.615 10.479 C-9.829 -2.514 -9.829 -2.514 0 0 Z " fill="#CBA9F9" transform="translate(272,715)"/>
<path d="M0 0 C0.66 0 1.32 0 2 0 C2.33 2.64 2.66 5.28 3 8 C3.33 8 3.66 8 4 8 C4.33 241.64 4.66 475.28 5 716 C3.028 714.028 2.168 712.491 1 710 C0.67 709.34 0.34 708.68 0 708 C-0.094 706.406 -0.124 704.808 -0.124 703.212 C-0.126 702.193 -0.129 701.173 -0.131 700.123 C-0.128 698.992 -0.126 697.862 -0.123 696.697 C-0.124 695.499 -0.125 694.301 -0.127 693.067 C-0.129 689.718 -0.126 686.368 -0.122 683.019 C-0.119 679.384 -0.121 675.749 -0.123 672.115 C-0.125 665.736 -0.123 659.358 -0.119 652.98 C-0.113 643.495 -0.113 634.011 -0.114 624.526 C-0.115 608.574 -0.112 592.622 -0.106 576.67 C-0.1 560.868 -0.096 545.067 -0.095 529.265 C-0.095 528.284 -0.095 527.303 -0.095 526.291 C-0.094 521.308 -0.094 516.324 -0.094 511.34 C-0.092 476.013 -0.085 440.686 -0.075 405.359 C-0.066 371.033 -0.059 336.707 -0.055 302.38 C-0.055 301.323 -0.055 300.265 -0.055 299.176 C-0.053 288.556 -0.052 277.936 -0.051 267.316 C-0.048 245.681 -0.045 224.046 -0.042 202.411 C-0.042 201.416 -0.042 200.421 -0.042 199.396 C-0.033 132.931 -0.017 66.465 0 0 Z " fill="#DAD4E5" transform="translate(66,272)"/>
<path d="M0 0 C0.544 0.061 1.087 0.121 1.648 0.184 C15.165 1.631 28.604 2.218 42.188 2.25 C43.296 2.257 43.296 2.257 44.427 2.265 C52.86 2.312 60.997 1.949 69.326 0.441 C72.621 -0.102 75.672 -0.155 79 0 C79 0.33 79 0.66 79 1 C75.04 1.66 71.08 2.32 67 3 C67 3.33 67 3.66 67 4 C54.649 4.968 42.383 5.122 30 5.062 C28.146 5.057 26.292 5.053 24.438 5.049 C19.958 5.038 15.479 5.021 11 5 C11 4.01 11 3.02 11 2 C6.545 2.495 6.545 2.495 2 3 C1.34 2.01 0.68 1.02 0 0 Z " fill="#3D2D61" transform="translate(584,914)"/>
<path d="M0 0 C0.33 0 0.66 0 1 0 C2.329 7.975 2.088 15.942 2 24 C1.34 24.33 0.68 24.66 0 25 C-1.245 28.734 -1.232 32.274 -1.316 36.168 C-1.337 36.963 -1.358 37.758 -1.379 38.576 C-1.445 41.113 -1.504 43.65 -1.562 46.188 C-1.606 47.908 -1.649 49.629 -1.693 51.35 C-1.8 55.566 -1.902 59.783 -2 64 C-2.33 64 -2.66 64 -3 64 C-3.322 42.456 -3.505 21.333 0 0 Z " fill="#BEB5CC" transform="translate(339,568)"/>
<path d="M0 0 C0.66 0.33 1.32 0.66 2 1 C-0.097 5.194 -1.603 6.496 -6 8 C-6.33 8.66 -6.66 9.32 -7 10 C-6.34 10.33 -5.68 10.66 -5 11 C-4.67 11.99 -4.34 12.98 -4 14 C-4.763 14.144 -5.526 14.289 -6.312 14.438 C-9.082 14.963 -9.082 14.963 -12 16 C-13.209 18 -13.209 18 -14 20 C-15.32 20 -16.64 20 -18 20 C-18.33 20.66 -18.66 21.32 -19 22 C-19.99 21.34 -20.98 20.68 -22 20 C-14.731 13.259 -7.448 6.544 0 0 Z " fill="#EDE9F3" transform="translate(444,377)"/>
<path d="M0 0 C0.99 0 1.98 0 3 0 C2.67 0.99 2.34 1.98 2 3 C1.34 2.67 0.68 2.34 0 2 C0 2.66 0 3.32 0 4 C-0.66 4 -1.32 4 -2 4 C-1.773 4.598 -1.546 5.196 -1.312 5.812 C-1.209 6.534 -1.106 7.256 -1 8 C-2.312 9.625 -2.312 9.625 -4 11 C-4.66 11.66 -5.32 12.32 -6 13 C-7.445 14.445 -9.17 15.113 -11 16 C-11.66 16.33 -12.32 16.66 -13 17 C-13.062 17.928 -13.124 18.856 -13.188 19.812 C-14 23 -14 23 -15.617 24.285 C-17.37 25.267 -19.183 26.141 -21 27 C-21 18.463 -6.081 6.081 0 0 Z " fill="#EEE8F5" transform="translate(420,400)"/>
<path d="M0 0 C0.66 0 1.32 0 2 0 C1.988 0.675 1.977 1.351 1.965 2.047 C1.956 2.939 1.947 3.831 1.938 4.75 C1.926 5.632 1.914 6.513 1.902 7.422 C1.896 9.968 1.896 9.968 2.629 12.203 C2.751 12.796 2.874 13.389 3 14 C2.34 14.66 1.68 15.32 1 16 C1.66 16 2.32 16 3 16 C2.67 19.96 2.34 23.92 2 28 C0.68 27.67 -0.64 27.34 -2 27 C-2.228 17.719 -1.904 9.13 0 0 Z " fill="#392665" transform="translate(460,580)"/>
<path d="M0 0 C6.977 -0.393 12.517 0.369 19 3 C19 3.99 19 4.98 19 6 C17.344 6.382 15.675 6.714 14 7 C13.67 6.67 13.34 6.34 13 6 C12.126 6.23 12.126 6.23 11.234 6.465 C8.698 7.072 6.826 6.903 4.25 6.562 C3.051 6.41 3.051 6.41 1.828 6.254 C1.225 6.17 0.622 6.086 0 6 C0 4.02 0 2.04 0 0 Z " fill="#342061" transform="translate(528,903)"/>
<path d="M0 0 C0.66 0 1.32 0 2 0 C2 0.66 2 1.32 2 2 C2.99 2 3.98 2 5 2 C5 2.66 5 3.32 5 4 C5.66 4 6.32 4 7 4 C7.33 4.99 7.66 5.98 8 7 C9.75 8.833 9.75 8.833 12 10 C14.109 9.623 14.109 9.623 16 9 C16.371 10.258 16.742 11.516 17.125 12.812 C18.415 16.335 18.823 16.889 22.188 19 C23.116 19.33 24.044 19.66 25 20 C24.67 20.66 24.34 21.32 24 22 C20.637 21.412 18.945 20.338 16.504 17.98 C15.863 17.37 15.221 16.76 14.561 16.131 C13.572 15.169 13.572 15.169 12.562 14.188 C11.253 12.929 9.942 11.673 8.629 10.418 C8.01 9.823 7.392 9.228 6.754 8.615 C4.858 6.819 4.858 6.819 2.027 4.738 C1.358 4.165 0.689 3.591 0 3 C0 2.01 0 1.02 0 0 Z " fill="#37285A" transform="translate(900,864)"/>
<path d="M0 0 C0 0.33 0 0.66 0 1 C-3.63 1.33 -7.26 1.66 -11 2 C-11 1.67 -11 1.34 -11 1 C-12.593 1.143 -12.593 1.143 -14.219 1.289 C-28.157 2.424 -28.157 2.424 -35 0 C-25.876 -5.567 -10.142 -1.375 0 0 Z " fill="#E6E1F1" transform="translate(667,317)"/>
<path d="M0 0 C0.99 0.66 1.98 1.32 3 2 C2.718 3.793 2.424 5.585 2.125 7.375 C1.963 8.373 1.8 9.37 1.633 10.398 C1 13 1 13 -1 15 C-0.257 15.65 -0.257 15.65 0.5 16.312 C2 18 2 18 2 21 C-0.375 23.688 -0.375 23.688 -3 26 C-3.66 26 -4.32 26 -5 26 C-3.385 17.323 -1.767 8.648 0 0 Z " fill="#E6E1EE" transform="translate(1181,1000)"/>
<path d="M0 0 C1.742 1.516 1.742 1.516 3 3 C-7.516 5.07 -17.641 5.241 -28.312 5.125 C-29.939 5.115 -31.566 5.106 -33.193 5.098 C-37.129 5.076 -41.064 5.042 -45 5 C-45 4.67 -45 4.34 -45 4 C-34.44 3.67 -23.88 3.34 -13 3 C-13 2.34 -13 1.68 -13 1 C-8.555 -0.111 -4.556 -0.294 0 0 Z " fill="#CAC2DD" transform="translate(653,912)"/>
<path d="M0 0 C0.66 0.33 1.32 0.66 2 1 C1.67 1.99 1.34 2.98 1 4 C0.34 4 -0.32 4 -1 4 C-2.461 6.647 -3 7.894 -3 11 C-3.33 11.66 -3.66 12.32 -4 13 C-4.66 12.34 -5.32 11.68 -6 11 C-6.412 11.413 -6.825 11.825 -7.25 12.25 C-9.167 14.167 -11.083 16.083 -13 18 C-13.66 17.67 -14.32 17.34 -15 17 C-15 14 -15 14 -13.75 12.422 C-13.173 11.87 -12.595 11.318 -12 10.75 C-11.37 10.145 -10.739 9.541 -10.09 8.918 C-6.781 5.881 -3.414 2.917 0 0 Z " fill="#371E67" transform="translate(258,762)"/>
<path d="M0 0 C4.315 6.473 4.244 14.438 4 22 C2 20 2 20 0 17 C-0.66 16.67 -1.32 16.34 -2 16 C-2.633 14.152 -2.633 14.152 -3.125 11.938 C-3.293 11.204 -3.46 10.471 -3.633 9.715 C-3.754 9.149 -3.875 8.583 -4 8 C-2.68 7.34 -1.36 6.68 0 6 C0 4.02 0 2.04 0 0 Z " fill="#3C2A63" transform="translate(341,672)"/>
<path d="M0 0 C0.757 0.01 1.515 0.019 2.295 0.029 C3.081 0.054 3.866 0.08 4.676 0.105 C5.872 0.126 5.872 0.126 7.092 0.146 C9.058 0.182 11.023 0.236 12.988 0.293 C12.988 0.623 12.988 0.953 12.988 1.293 C15.628 1.623 18.268 1.953 20.988 2.293 C20.658 2.953 20.328 3.613 19.988 4.293 C10.914 4.405 2.025 4.235 -7.012 3.293 C-4.748 0.608 -3.506 -0.079 0 0 Z " fill="#F5F1F9" transform="translate(595.01171875,911.70703125)"/>
<path d="M0 0 C2.64 0.66 5.28 1.32 8 2 C8 2.66 8 3.32 8 4 C8.66 4.33 9.32 4.66 10 5 C10.33 5.99 10.66 6.98 11 8 C11.66 8.66 12.32 9.32 13 10 C15 12 15 12 16 15 C11.213 14.568 9.398 12.765 6.312 9.188 C5.546 8.315 4.779 7.442 3.988 6.543 C2.307 4.393 1.084 2.487 0 0 Z " fill="#342359" transform="translate(830,403)"/>
<path d="M0 0 C2.334 2.929 4.05 5.886 5.688 9.25 C6.124 10.142 6.561 11.034 7.012 11.953 C7.338 12.629 7.664 13.304 8 14 C5.333 14 2.667 14 0 14 C-1.392 9.207 -0.687 4.849 0 0 Z " fill="#31205A" transform="translate(371,761)"/>
<path d="M0 0 C1.812 0.562 1.812 0.562 4 2 C5.054 4.31 6.057 6.643 7 9 C7.66 9.33 8.32 9.66 9 10 C10.445 13.613 11 16.067 11 20 C11.66 20.33 12.32 20.66 13 21 C12.34 21.66 11.68 22.32 11 23 C10.078 21.355 10.078 21.355 9.137 19.676 C8.32 18.221 7.504 16.767 6.688 15.312 C6.283 14.591 5.879 13.87 5.463 13.127 C5.067 12.421 4.67 11.715 4.262 10.988 C3.877 10.301 3.492 9.613 3.095 8.905 C2.159 7.277 1.158 5.686 0.145 4.105 C-0.233 3.411 -0.611 2.716 -1 2 C-0.67 1.34 -0.34 0.68 0 0 Z " fill="#EFE9F4" transform="translate(1146,161)"/>
<path d="M0 0 C0 2.667 0 5.333 0 8 C-0.66 7.67 -1.32 7.34 -2 7 C-2.33 7.66 -2.66 8.32 -3 9 C-2.34 9.33 -1.68 9.66 -1 10 C-1.804 10.392 -2.609 10.784 -3.438 11.188 C-6.231 12.769 -6.231 12.769 -6.812 15.688 C-6.874 16.451 -6.936 17.214 -7 18 C-7.66 17.67 -8.32 17.34 -9 17 C-9 16.34 -9 15.68 -9 15 C-9.66 14.67 -10.32 14.34 -11 14 C-9.733 12.227 -8.461 10.456 -7.188 8.688 C-6.48 7.701 -5.772 6.715 -5.043 5.699 C-3.454 3.599 -1.925 1.78 0 0 Z " fill="#35245D" transform="translate(502,491)"/>
<path d="M0 0 C0.66 0.66 1.32 1.32 2 2 C-1.96 9.26 -5.92 16.52 -10 24 C-10.66 22.68 -11.32 21.36 -12 20 C-11.34 20 -10.68 20 -10 20 C-8.252 15.696 -6.623 11.352 -5 7 C-4.34 7 -3.68 7 -3 7 C-3 5.68 -3 4.36 -3 3 C-1.5 1.25 -1.5 1.25 0 0 Z " fill="#EBE5F3" transform="translate(874,757)"/>
<path d="M0 0 C2.856 2.526 5.142 5.364 7.375 8.438 C8.191 9.549 8.191 9.549 9.023 10.684 C10 13 10 13 9.164 15.785 C8.78 16.516 8.396 17.247 8 18 C6.68 16.68 5.36 15.36 4 14 C4.33 13.01 4.66 12.02 5 11 C4.34 10.67 3.68 10.34 3 10 C3 9.01 3 8.02 3 7 C2.01 6.67 1.02 6.34 0 6 C0 4.02 0 2.04 0 0 Z " fill="#3A285E" transform="translate(1141,158)"/>
<path d="M0 0 C0.99 1.32 1.98 2.64 3 4 C-1.417 9.767 -1.417 9.767 -3.875 10.75 C-4.927 10.874 -4.927 10.874 -6 11 C-8.335 11.662 -10.668 12.327 -13 13 C-8.667 8.667 -4.333 4.333 0 0 Z " fill="#3B236B" transform="translate(233,785)"/>
<path d="M0 0 C2.763 0.523 5.326 1.109 8 2 C8 1.34 8 0.68 8 0 C8.66 0.33 9.32 0.66 10 1 C10.66 1.268 11.32 1.536 12 1.812 C14.385 3.229 14.986 4.465 16 7 C11.25 8.125 11.25 8.125 9 7 C9 6.34 9 5.68 9 5 C3.72 4.34 -1.56 3.68 -7 3 C-7 2.67 -7 2.34 -7 2 C-3.535 1.505 -3.535 1.505 0 1 C0 0.67 0 0.34 0 0 Z " fill="#40296F" transform="translate(1087,593)"/>
<path d="M0 0 C0 0.66 0 1.32 0 2 C0.66 2.33 1.32 2.66 2 3 C-0.97 3.99 -3.94 4.98 -7 6 C-7 7.32 -7 8.64 -7 10 C-10.736 10.764 -13.348 11.072 -17 10 C-15.439 8.894 -13.876 7.79 -12.312 6.688 C-11.442 6.073 -10.572 5.458 -9.676 4.824 C-2.6 0 -2.6 0 0 0 Z " fill="#EDE6F1" transform="translate(476,356)"/>
<path d="M0 0 C2.375 0.25 2.375 0.25 5 1 C6.312 3.062 6.312 3.062 7 5 C8.98 5 10.96 5 13 5 C13.33 5.99 13.66 6.98 14 8 C14.804 8.124 15.609 8.247 16.438 8.375 C17.283 8.581 18.129 8.787 19 9 C19.33 9.66 19.66 10.32 20 11 C18.445 11.73 18.445 11.73 16 12 C13.471 10.87 11.238 9.718 8.875 8.312 C8.242 7.96 7.609 7.607 6.957 7.244 C3.575 5.28 1.253 3.803 0 0 Z " fill="#332356" transform="translate(178,1155)"/>
<path d="M0 0 C-0.839 4.584 -3.198 7.371 -7 10 C-9.875 9.875 -9.875 9.875 -12 9 C-11.34 8.67 -10.68 8.34 -10 8 C-10 7.01 -10 6.02 -10 5 C-10.66 4.67 -11.32 4.34 -12 4 C-10.377 3.329 -8.751 2.663 -7.125 2 C-6.22 1.629 -5.315 1.258 -4.383 0.875 C-2 0 -2 0 0 0 Z " fill="#382662" transform="translate(736,893)"/>
<path d="M0 0 C4.455 0.99 4.455 0.99 9 2 C3.25 8.75 3.25 8.75 1 11 C-0.562 9.875 -0.562 9.875 -2 8 C-1.755 5.002 -1.347 2.693 0 0 Z M2 1 C1.67 1.66 1.34 2.32 1 3 C1.66 3 2.32 3 3 3 C2.67 2.34 2.34 1.68 2 1 Z " fill="#361C65" transform="translate(987,609)"/>
<path d="M0 0 C6.049 2.86 11.507 6.185 17 10 C16.67 10.99 16.34 11.98 16 13 C14.062 12.688 14.062 12.688 12 12 C11.67 11.01 11.34 10.02 11 9 C10.34 9 9.68 9 9 9 C9 8.34 9 7.68 9 7 C7.35 7.33 5.7 7.66 4 8 C4 7.34 4 6.68 4 6 C3.34 5.526 2.68 5.051 2 4.562 C1.34 4.047 0.68 3.531 0 3 C0 2.01 0 1.02 0 0 Z " fill="#351D64" transform="translate(208,503)"/>
<path d="M0 0 C8.58 0 17.16 0 26 0 C26.33 0.66 26.66 1.32 27 2 C21.517 3.157 16.197 3.114 10.625 3.062 C9.698 3.058 8.771 3.053 7.816 3.049 C5.544 3.037 3.272 3.021 1 3 C0.67 2.01 0.34 1.02 0 0 Z " fill="#301B63" transform="translate(608,436)"/>
<path d="M0 0 C3.09 1.351 4.969 2.79 7.125 5.375 C7.623 5.96 8.12 6.545 8.633 7.148 C10.016 9.022 11.024 10.89 12 13 C10.35 13.33 8.7 13.66 7 14 C7 12.02 7 10.04 7 8 C6.01 8.33 5.02 8.66 4 9 C1.812 8.062 1.812 8.062 0 7 C0.33 5.35 0.66 3.7 1 2 C0.34 1.67 -0.32 1.34 -1 1 C-0.67 0.67 -0.34 0.34 0 0 Z " fill="#371F67" transform="translate(978,751)"/>
<path d="M0 0 C0.99 0.66 1.98 1.32 3 2 C1.196 5.265 0.166 6.889 -3 9 C-4.32 9 -5.64 9 -7 9 C-7 9.66 -7 10.32 -7 11 C-8.65 11.33 -10.3 11.66 -12 12 C-8.322 7.474 -4.589 3.606 0 0 Z " fill="#36245B" transform="translate(523,470)"/>
<path d="M0 0 C2.429 3.644 2.083 4.929 1.625 9.188 C1.514 10.274 1.403 11.361 1.289 12.48 C1.194 13.312 1.098 14.143 1 15 C0.34 13.68 -0.32 12.36 -1 11 C-1.33 12.65 -1.66 14.3 -2 16 C-2.33 16 -2.66 16 -3 16 C-3.195 14.23 -3.381 12.459 -3.562 10.688 C-3.667 9.701 -3.771 8.715 -3.879 7.699 C-4 5 -4 5 -3 2 C-2.01 1.34 -1.02 0.68 0 0 Z " fill="#402A71" transform="translate(181,459)"/>
<path d="M0 0 C0.66 0 1.32 0 2 0 C2.33 0.99 2.66 1.98 3 3 C-0.3 5.31 -3.6 7.62 -7 10 C-7.99 9.34 -8.98 8.68 -10 8 C-9.34 7.01 -8.68 6.02 -8 5 C-8 4.01 -8 3.02 -8 2 C-6.855 2.278 -6.855 2.278 -5.688 2.562 C-2.91 3.228 -2.91 3.228 0 2 C0 1.34 0 0.68 0 0 Z " fill="#F3ECF8" transform="translate(939,920)"/>
<path d="M0 0 C3.806 3.221 7.541 6.402 11 10 C5.375 12 5.375 12 2 12 C1.34 8.04 0.68 4.08 0 0 Z " fill="#35245B" transform="translate(790,928)"/>
<path d="M0 0 C0.66 0.66 1.32 1.32 2 2 C1.34 2.66 0.68 3.32 0 4 C0.32 6.603 0.32 6.603 1 9 C0.381 8.835 -0.237 8.67 -0.875 8.5 C-4.537 7.638 -6.582 8.561 -10 10 C-10.66 9.34 -11.32 8.68 -12 8 C-8.04 5.36 -4.08 2.72 0 0 Z " fill="#382069" transform="translate(1006,526)"/>
<path d="M0 0 C-0.639 0.103 -1.279 0.206 -1.938 0.312 C-2.618 0.539 -3.299 0.766 -4 1 C-4.33 1.99 -4.66 2.98 -5 4 C-7.375 5.562 -7.375 5.562 -10 7 C-10.99 7.66 -11.98 8.32 -13 9 C-13 8.34 -13 7.68 -13 7 C-14.65 6.67 -16.3 6.34 -18 6 C-15.142 3.697 -12.396 2.137 -9 0.75 C-8.154 0.394 -7.309 0.038 -6.438 -0.328 C-3.811 -1.052 -2.528 -0.913 0 0 Z " fill="#E8E3EF" transform="translate(524,334)"/>
<path d="M0 0 C0.33 0.66 0.66 1.32 1 2 C-1.457 2.837 -3.916 3.67 -6.375 4.5 C-7.423 4.858 -7.423 4.858 -8.492 5.223 C-13.773 7 -13.773 7 -16 7 C-15.67 6.01 -15.34 5.02 -15 4 C-14.01 3.67 -13.02 3.34 -12 3 C-11.67 2.34 -11.34 1.68 -11 1 C-9.258 0.332 -9.258 0.332 -7.125 -0.188 C-6.077 -0.456 -6.077 -0.456 -5.008 -0.73 C-3 -1 -3 -1 0 0 Z " fill="#EDE8F3" transform="translate(721,897)"/>
<path d="M0 0 C5.333 5.333 10.667 10.667 16 16 C15.34 16.99 14.68 17.98 14 19 C12.763 17.47 11.526 15.94 10.289 14.41 C9.033 12.867 9.033 12.867 7 12 C7 11.34 7 10.68 7 10 C6.402 9.773 5.804 9.546 5.188 9.312 C2.388 7.633 1.419 5.909 0 3 C0 2.01 0 1.02 0 0 Z " fill="#E4DDEE" transform="translate(502,739)"/>
<path d="M0 0 C2.511 1.255 2.871 2.501 4 5 C2.36 4.907 2.36 4.907 0.688 4.812 C-2.918 4.628 -2.918 4.628 -4.812 6.5 C-5.204 6.995 -5.596 7.49 -6 8 C-6.66 8 -7.32 8 -8 8 C-8 8.66 -8 9.32 -8 10 C-8.99 10 -9.98 10 -11 10 C-11 10.66 -11 11.32 -11 12 C-13 11 -13 11 -14 9 C-11.714 7.469 -9.422 5.95 -7.125 4.438 C-6.149 3.781 -6.149 3.781 -5.152 3.111 C-3.474 2.012 -1.74 0.999 0 0 Z " fill="#C4A4ED" transform="translate(248,722)"/>
<path d="M0 0 C3.123 0.486 5.996 0.999 9 2 C9 2.99 9 3.98 9 5 C9.66 5.33 10.32 5.66 11 6 C7.7 6.66 4.4 7.32 1 8 C0 3 0 3 0 0 Z " fill="#34225F" transform="translate(656,785)"/>
<path d="M0 0 C0.471 0.41 0.941 0.82 1.426 1.242 C2.048 1.781 2.671 2.32 3.312 2.875 C3.927 3.409 4.542 3.942 5.176 4.492 C7.135 6.164 7.135 6.164 10 8 C10 8.66 10 9.32 10 10 C6.04 9.67 2.08 9.34 -2 9 C-2 8.34 -2 7.68 -2 7 C-2.66 6.67 -3.32 6.34 -4 6 C-3.01 6 -2.02 6 -1 6 C-0.447 3.924 0 2.156 0 0 Z " fill="#381F68" transform="translate(1021,790)"/>
<path d="M0 0 C1.376 2.662 2.371 5.063 3 8 C2.01 8 1.02 8 0 8 C0 9.98 0 11.96 0 14 C-0.639 14.268 -1.279 14.536 -1.938 14.812 C-4.331 15.887 -4.331 15.887 -5 19 C-4.393 12.323 -2.224 6.299 0 0 Z " fill="#433368" transform="translate(468,550)"/>
</svg>
